<?xml version="1.0" encoding="UTF-8"?>
<svg xmlns="http://www.w3.org/2000/svg" xmlns:xlink="http://www.w3.org/1999/xlink" width="2100" height="2100" viewBox="0 0 2100 2100">
<rect x="-210" y="-210" width="2520" height="2520" fill="rgb(100%, 100%, 100%)" fill-opacity="1"/>
<path fill-rule="nonzero" fill="rgb(0%, 0%, 0%)" fill-opacity="1" d="M 684.65625 973.308594 C 654.128906 973.71875 629.710938 998.789062 630.09375 1029.320312 L 630.09375 1109.574219 C 630.09375 1341.1875 818.246094 1529.339844 1049.859375 1529.339844 C 1281.46875 1529.339844 1469.910156 1341.1875 1469.910156 1109.574219 L 1469.910156 1029.320312 C 1469.921875 1014.609375 1464.078125 1000.5 1453.691406 990.109375 C 1443.289062 979.699219 1429.191406 973.859375 1414.480469 973.859375 C 1399.769531 973.859375 1385.671875 979.699219 1375.28125 990.109375 C 1364.878906 1000.5 1359.039062 1014.609375 1359.050781 1029.320312 L 1359.050781 1109.574219 C 1359.050781 1281.816406 1222.101562 1418.769531 1049.859375 1418.769531 C 877.617188 1418.769531 740.953125 1281.816406 740.953125 1109.574219 L 740.953125 1029.320312 C 741.140625 1014.359375 735.261719 999.960938 724.65625 989.398438 C 714.046875 978.851562 699.617188 973.039062 684.65625 973.308594 Z M 684.65625 973.308594 "/>
<path fill-rule="nonzero" fill="rgb(0%, 0%, 0%)" fill-opacity="1" d="M 1049.988281 375 C 1154.269531 375 1238.21875 458.949219 1238.21875 563.230469 L 1238.21875 1120.621094 C 1238.21875 1224.902344 1154.269531 1308.855469 1049.988281 1308.855469 C 945.707031 1308.855469 861.757812 1224.902344 861.757812 1120.621094 L 861.757812 563.230469 C 861.757812 458.949219 945.707031 375 1049.988281 375 Z M 1049.988281 375 "/>
<path fill-rule="nonzero" fill="rgb(0%, 0%, 0%)" fill-opacity="1" d="M 1049.28125 1417.902344 C 1034.570312 1418.101562 1020.550781 1424.152344 1010.308594 1434.71875 C 1000.070312 1445.28125 994.457031 1459.488281 994.71875 1474.199219 L 994.71875 1667.625 C 994.160156 1682.644531 999.734375 1697.242188 1010.160156 1708.0625 C 1020.589844 1718.886719 1034.96875 1725 1050 1725 C 1065.03125 1725 1079.410156 1718.886719 1089.839844 1708.0625 C 1100.269531 1697.242188 1105.851562 1682.644531 1105.289062 1667.625 L 1105.289062 1474.199219 C 1105.550781 1459.238281 1099.75 1444.808594 1089.191406 1434.203125 C 1078.640625 1423.597656 1064.238281 1417.714844 1049.28125 1417.902344 Z M 1049.28125 1417.902344 "/>
</svg>
